<svg 
          width="38" 
          height="20" fill="none" 
          xmlns="http://www.w3.org/2000/svg">
          <path d="M 19 11.25 C 21.580833325783413 11.25 23.860833038886387 11.899999380111694 25.713332970937092 12.749999364217123 C 27.423333038886387 13.54999934633573 28.5 15.349998672803245 28.5 17.29999860127767 L 28.5 20 L 9.5 20 L 9.5 17.316665649414062 C 9.5 15.349999070167542 10.576666961113611 13.549999743700027 12.286667029062906 12.766666412353516 C 14.139166961113611 11.899999777475992 16.419166674216587 11.25 19 11.25 Z M 6.333333333333333 11.666666666666668 C 8.075000037749607 11.666666666666668 9.5 10.166666706403097 9.5 8.333333333333334 C 9.5 6.499999960263571 8.075000037749607 5 6.333333333333333 5 C 4.591666628917058 5 3.1666666666666665 6.499999960263571 3.1666666666666665 8.333333333333334 C 3.1666666666666665 10.166666706403097 4.591666628917058 11.666666666666668 6.333333333333333 11.666666666666668 Z M 8.12250018119812 13.500000635782879 C 7.536666840314865 13.400000638018053 6.950833310683568 13.333333333333334 6.333333333333333 13.333333333333334 C 4.76583331823349 13.333333333333334 3.277500083049138 13.683333198229473 1.9316667119661965 14.299999872843426 C 0.7600000301996865 14.83333319425583 0 16.033333837985992 0 17.383333841959637 L 0 20 L 7.125 20 L 7.125 17.316665649414062 C 7.125 15.93333234389623 7.489166838427384 14.633333981037142 8.12250018119812 13.500000635782879 Z M 31.666666666666664 11.666666666666668 C 33.40833337108294 11.666666666666668 34.83333333333333 10.166666706403097 34.83333333333333 8.333333333333334 C 34.83333333333333 6.499999960263571 33.40833337108294 5 31.666666666666664 5 C 29.92499996225039 5 28.5 6.499999960263571 28.5 8.333333333333334 C 28.5 10.166666706403097 29.92499996225039 11.666666666666668 31.666666666666664 11.666666666666668 Z M 38 17.383333841959637 C 38 16.033333837985992 37.24000110228856 14.83333319425583 36.06833442052205 14.299999872843426 C 34.72250104943911 13.683333198229473 33.23416668176651 13.333333333333334 31.666666666666664 13.333333333333334 C 31.04916668931643 13.333333333333334 30.463334669669468 13.400000638018053 29.877501328786213 13.500000635782879 C 30.51083467155695 14.633333981037142 30.875 15.93333234389623 30.875 17.316665649414062 L 30.875 20 L 38 20 L 38 17.383333841959637 Z M 19 0 C 21.628333280483883 0 23.75 2.233333388964335 23.75 5 C 23.75 7.7666666110356655 21.628333280483883 10 19 10 C 16.371666719516117 10 14.25 7.7666666110356655 14.25 5 C 14.25 2.233333388964335 16.371666719516117 0 19 0 Z" fill="rgb(0,91.00000217556953,170.0000050663948)"/>
        </svg>