<svg 
          width="29" 
          height="29" fill="none" 
          xmlns="http://www.w3.org/2000/svg">
          <path d="M 0 3.2222222222222223 L 0 25.77777777777778 C 0 27.550000038411884 1.4338888658417597 29 3.2222222222222223 29 L 25.77777777777778 29 C 27.550000038411884 29 29 27.550000038411884 29 25.77777777777778 L 29 3.2222222222222223 C 29 1.4499999615881178 27.550000038411884 0 25.77777777777778 0 L 3.2222222222222223 0 C 1.4338888658417597 0 0 1.4499999615881178 0 3.2222222222222223 Z M 19.333333333333336 9.666666666666668 C 19.333333333333336 12.341111057334476 17.17444439066781 14.5 14.5 14.5 C 11.825555609332191 14.5 9.666666666666668 12.341111057334476 9.666666666666668 9.666666666666668 C 9.666666666666668 6.992222275998858 11.825555609332191 4.833333333333334 14.5 4.833333333333334 C 17.17444439066781 4.833333333333334 19.333333333333336 6.992222275998858 19.333333333333336 9.666666666666668 Z M 4.833333333333334 22.555555555555557 C 4.833333333333334 19.333333333333336 11.277777777777779 17.561110496520996 14.5 17.561110496520996 C 17.72222222222222 17.561110496520996 24.166666666666668 19.333333333333336 24.166666666666668 22.555555555555557 L 24.166666666666668 24.166666666666668 L 4.833333333333334 24.166666666666668 L 4.833333333333334 22.555555555555557 Z" fill="rgb(0,0,0)"/>
        </svg>